<?xml version="1.0" encoding="UTF-8"?>
<svg width="128pt" height="128pt" version="1.1" viewBox="0 0 128 128" xmlns="http://www.w3.org/2000/svg">
 <path d="m88.18 78.184c0.37109-0.34375 0.75391-0.70312 1.1406-1.0625l-0.011718-0.011719c7.5117-7.4609 12.172-17.793 12.172-29.184 0-22.695-18.457-41.152-41.152-41.152-22.695-0.003907-41.152 18.457-41.152 41.148 0 11.391 4.6602 21.723 12.172 29.184l-0.011718 0.011719c0.38281 0.35937 0.76953 0.71875 1.1523 1.0742 0.089844 0.078125 0.16797 0.15234 0.25781 0.23047 6.875 6.4258 12.43 12.57 13.273 20.582l2.3789 21.594c0.0625 0.62891 0.58984 1.0898 1.2148 1.0898h21.402c0.62891 0 1.1523-0.47266 1.2148-1.0898l2.3789-21.594c0.84375-8.0117 6.3984-14.156 13.273-20.582 0.10547-0.074219 0.20703-0.16406 0.29688-0.23828zm0.23047-3.6875c-2.2773-1.8672-5.1055-2.8789-8.0781-2.8789-1.9727 0-3.8789 0.46094-5.5938 1.3047 1.9219-5.8125 3.1758-12.875 3.5195-20.645 1.5469-0.39844 2.7539-1.5859 3.1875-3.125h14.488c0.39844 1.4219 1.4727 2.5352 2.8555 3.0195-0.94531 8.6016-4.7227 16.359-10.379 22.324zm-16.984 31.281c-1.793 1.5117-4.4531 1.4453-6.1445-0.24219-2.7266-2.7266-7.1797-2.7266-9.9062 0-1.625 1.625-4.3906 1.7031-6.1445 0.24219l-0.62891-5.6562h23.438zm-7.3867-8.125h-7.4258c-0.24219-3.2383-0.79297-6.1836-1.5859-8.9453-0.17969-0.60156-0.35938-1.2148-0.55078-1.8047-0.089843-0.25781-0.17969-0.52344-0.26953-0.78125-0.82031-2.3555-1.8047-4.6094-2.8672-6.8594-0.43359-0.92188-0.88281-1.832-1.3438-2.7539 5.875-5.2617 14.797-5.2617 20.672 0-0.46094 0.92188-0.91016 1.8438-1.3438 2.7656-1.0625 2.2539-2.0469 4.5039-2.8672 6.8477-0.089843 0.25781-0.17969 0.52344-0.26953 0.78125-0.19141 0.58984-0.38281 1.1914-0.55078 1.8047-0.80469 2.7734-1.3555 5.7188-1.5977 8.9453zm-3.7109-88.422c7.8594 0 14.578 15.359 15.461 34.406-1.4453 0.44922-2.5742 1.6016-2.9961 3.0586h-24.934c-0.41016-1.4609-1.5352-2.6094-2.9805-3.0586 0.88281-19.047 7.5898-34.406 15.449-34.406zm-12.469 39.922h24.945c0.41016 1.4609 1.5352 2.6094 2.9961 3.0586-0.38281 8.332-1.8945 15.961-4.1211 21.914-3.1992-2.6094-7.1562-4.0312-11.34-4.0312-4.1875 0-8.1406 1.4219-11.34 4.0312-2.2266-5.9375-3.7383-13.566-4.1211-21.914 1.4297-0.46094 2.5586-1.6016 2.9805-3.0586zm50.93-5.4805c-1.3828 0.47266-2.457 1.6016-2.8555 3.0195l-14.5 0.003906c-0.43359-1.5352-1.6367-2.7266-3.1875-3.125-0.67969-15.449-4.9531-28.109-10.945-33.703 16.656 3.0469 29.621 16.781 31.488 33.805zm-45.438-33.805c-5.9922 5.5938-10.266 18.254-10.945 33.703-1.5469 0.39844-2.7539 1.5859-3.1875 3.125h-14.488c-0.39844-1.4219-1.4727-2.5352-2.8555-3.0195 1.8555-17.027 14.824-30.762 31.477-33.809zm-28.621 39.285h14.488c0.43359 1.5352 1.6367 2.7266 3.1875 3.125 0.34375 7.7695 1.6016 14.836 3.5195 20.645-1.7266-0.84375-3.6211-1.3047-5.5938-1.3047-2.9805 0-5.8125 1.0117-8.0898 2.8789-5.6562-5.9648-9.4336-13.734-10.367-22.336 1.3828-0.47266 2.4453-1.6016 2.8555-3.0078zm17.562 35.738c-2.2383-2.8164-4.9414-5.5156-7.8594-8.2578-0.11328-0.11328-0.23047-0.21875-0.35938-0.33203-0.027344-0.027343-0.050781-0.050781-0.078125-0.0625 1.8047-1.4062 4.0078-2.1758 6.3242-2.1758 2.6758 0 5.1836 1.0234 7.1172 2.8555 0.5625 1.293 1.1523 2.4961 1.793 3.6094 0.78125 1.6641 1.5117 3.3281 2.1523 5.0312 0.34375 0.89453 0.65234 1.8047 0.94531 2.7148 0.92188 2.9062 1.5625 5.9766 1.832 9.3828h-5.8633c-0.74609-4.7812-2.9336-8.9023-6.0039-12.766zm27.633 34.367h-19.199l-1.1523-10.445c0.82031 0.32031 1.6914 0.5 2.5859 0.5 1.8672 0 3.6367-0.73047 4.9531-2.0469 1.7773-1.7773 4.6602-1.7773 6.4375 0 2.0352 2.0352 5.0195 2.5469 7.5391 1.5469zm2.4336-21.605h-5.8633c0.26953-3.4062 0.92188-6.4766 1.832-9.3828 0.29297-0.92188 0.60156-1.832 0.94531-2.7148 0.64062-1.7031 1.3711-3.3672 2.1523-5.0195 0.62891-1.1133 1.2305-2.3281 1.793-3.6211 1.9336-1.8438 4.4414-2.8555 7.1172-2.8555 2.3164 0 4.5195 0.76953 6.3242 2.1758-0.011718 0.011719-0.039062 0.039063-0.050781 0.050781-0.12891 0.11328-0.24219 0.23047-0.37109 0.34375-2.918 2.7383-5.6211 5.4258-7.8594 8.2422-3.0898 3.8828-5.2773 8.0039-6.0195 12.781z" fill="#333"/>
 <path d="m113.21 72.82c-2.2656 0-4.2617 1.1758-5.4141 2.9453-0.33203-0.078125-0.67969-0.11328-1.0352-0.11328-2.7773 0-5.0312 2.2539-5.0312 5.0312s2.2539 5.0312 5.0312 5.0312h6.4531c3.5703 0 6.4531-2.8945 6.4531-6.4531-0.003906-3.5508-2.8984-6.4414-6.457-6.4414z" fill="#333"/>
 <path d="m31.426 94.898c-0.51172 0-1.0117 0.050781-1.4961 0.15234-1.6641-2.5586-4.5312-4.25-7.8086-4.25-4.3398 0-7.9727 2.9805-9.0117 7-3.0078 0.21875-5.4023 2.7148-5.4023 5.7852 0 3.2109 2.6094 5.8242 5.8242 5.8242h17.883c4.0078 0 7.2578-3.25 7.2578-7.2578 0.007813-4-3.2422-7.2539-7.2461-7.2539z" fill="#333"/>
 <path d="m111.55 97.805c-1.0234-4.0195-4.6602-7-9.0117-7-3.2773 0-6.1445 1.6914-7.8086 4.25-0.48828-0.10156-0.98438-0.15234-1.4961-0.15234-4.0078 0-7.2578 3.25-7.2578 7.2578 0 4.0078 3.25 7.2578 7.2578 7.2578h17.883c3.2109 0 5.8242-2.6094 5.8242-5.8242 0.011719-3.0742-2.3672-5.5586-5.3906-5.7891z" fill="#333"/>
</svg>
